<svg id="SvgjsSvg1043" width="288" height="288" xmlns="http://www.w3.org/2000/svg" version="1.1" xmlns:xlink="http://www.w3.org/1999/xlink" xmlns:svgjs="http://svgjs.com/svgjs"><defs id="SvgjsDefs1044"></defs><g id="SvgjsG1045"><svg xmlns="http://www.w3.org/2000/svg" viewBox="0 0 32 32" width="288" height="288"><path fill="#ffffff" d="M27 14.83V26a3 3 0 0 1-3 3H8a3 3 0 0 1-3-3V14.83a3 3 0 0 1 .88-2.12l8-8a3.06 3.06 0 0 1 4.24 0l8 8a3 3 0 0 1 .88 2.12Z" class="color8c9eff svgShape"></path><path fill="#03283b" d="m26.12 12.71-8-8A3 3 0 0 0 16 3.85V29h8a3 3 0 0 0 3-3V14.83a3 3 0 0 0-.88-2.12Z" class="color5f7cf9 svgShape"></path><path fill="#03283b" d="M20 21v8h-8v-8a3 3 0 0 1 3-3h2a3 3 0 0 1 3 3Z" class="color5f7cf9 svgShape"></path><path fill="#fdfdfd" d="M20 21a3 3 0 0 0-3-3h-1v11h4Z" class="color4062ed svgShape"></path></svg></g></svg>